# xmcd
#
# Track frame offsets:
#	150
#	18137
#	61787
#	73923
#	87230
#	98410
#	110260
#	132235
#	143147
#	165719
#	177544
#	189783
#
# Disc length: 2684 seconds
# Revision: 0
# Processed by: cddbd v1.5.2PL0 Copyright (c) Steve Scherf et al.
# Submitted via: dBpowerAMP V12.0
#
DISCID=960a7a0c
DTITLE=B.B. King - Spotlight on Lucille
DYEAR=1992
DGENRE=Blues
TTITLE0=Slidin' and Glidin'
TTITLE1=Blues With BB
TTITLE2=King of Guitar
TTITLE3=Jump With BB
TTITLE4=38th Stree Blues
TTITLE5=Feedin' the Rock
TTITLE6=Just Like A Woman
TTITLE7=Step It Up
TTITLE8=Calypso Jazz
TTITLE9=Easy Listening Blues
TTITLE10=Shoutin' the Blues
TTITLE11=Powerhouse
EXTD=
EXTT0=
EXTT1=
EXTT2=
EXTT3=
EXTT4=
EXTT5=
EXTT6=
EXTT7=
EXTT8=
EXTT9=
EXTT10=
EXTT11=
PLAYORDER=
